<?xml version="1.0" standalone="no"?>
<!DOCTYPE svg PUBLIC "-//W3C//DTD SVG 20010904//EN"
 "http://www.w3.org/TR/2001/REC-SVG-20010904/DTD/svg10.dtd">
<svg version="1.0" xmlns="http://www.w3.org/2000/svg"
 width="397.000000pt" height="297.000000pt" viewBox="0 0 397.000000 297.000000"
 preserveAspectRatio="xMidYMid meet">
<metadata>
Created by potrace 1.16, written by Peter Selinger 2001-2019
</metadata>
<g transform="translate(0.000000,297.000000) scale(0.100000,-0.100000)"
fill="#000000" stroke="none">
<path d="M900 2532 c0 -19 62 -100 99 -130 37 -30 39 -34 30 -64 -29 -102 20
-199 138 -275 50 -32 53 -36 53 -74 0 -85 33 -123 195 -219 50 -30 110 -72
134 -94 49 -46 101 -129 101 -163 0 -19 -5 -23 -31 -23 -42 0 -253 -36 -359
-61 -207 -50 -394 -117 -575 -206 -84 -41 -139 -77 -90 -58 99 37 300 100 412
129 762 194 1670 148 2363 -119 83 -31 54 -8 -60 50 -170 85 -329 143 -555
199 -113 28 -327 66 -373 66 -42 0 -46 12 -22 67 30 69 111 146 220 211 150
88 200 143 200 221 0 38 3 43 60 81 105 71 148 153 131 245 -9 48 -6 75 9 75
20 0 120 118 120 143 0 22 -41 0 -86 -46 -35 -35 -94 -75 -183 -125 -73 -40
-140 -75 -151 -77 -10 -2 -90 -42 -178 -89 -88 -47 -164 -86 -170 -86 -6 0
-12 38 -14 96 l-3 96 35 27 c19 15 80 58 135 95 55 37 114 78 130 91 l30 25
-25 0 c-28 0 -307 -164 -354 -208 -30 -28 -71 -110 -100 -199 -10 -29 -21 -53
-26 -53 -4 0 -19 28 -33 63 l-25 62 -83 0 -84 0 -25 -62 c-14 -35 -28 -63 -32
-63 -3 0 -20 39 -38 88 -36 101 -66 151 -112 185 -74 54 -307 187 -329 187
-24 -1 -24 -1 6 -26 17 -14 90 -66 163 -115 l132 -89 0 -100 c0 -70 -4 -100
-12 -100 -6 0 -74 34 -151 75 -76 41 -150 78 -163 81 -13 3 -24 9 -24 13 0 4
-6 8 -13 8 -7 0 -72 33 -144 73 -89 49 -150 91 -185 127 -47 47 -88 68 -88 45z
m233 -206 c9 -7 17 -18 17 -24 0 -6 7 -9 15 -6 9 4 15 1 15 -7 0 -8 56 -49
125 -92 124 -78 125 -79 125 -116 0 -21 -3 -41 -7 -44 -7 -7 -118 51 -221 116
-45 28 -68 50 -82 80 l-20 40 23 20 22 20 -22 -6 c-18 -4 -23 -1 -23 14 0 22
8 23 33 5z m1742 -46 c14 -43 -20 -86 -112 -143 -86 -53 -186 -107 -198 -107
-3 0 -5 21 -3 47 l3 46 125 78 c68 42 126 82 128 88 2 6 8 9 13 5 5 -3 9 -1 9
5 0 17 29 1 35 -19z m-835 -669 c16 -41 30 -80 30 -87 0 -11 -17 -14 -68 -14
-38 0 -71 2 -74 6 -3 3 10 45 30 95 20 49 39 86 43 82 5 -5 22 -41 39 -82z"/>
<path d="M790 848 c0 -7 14 -100 32 -205 l33 -193 36 0 36 0 13 95 c7 52 16
95 20 95 9 0 17 -39 26 -125 l7 -65 38 0 c25 0 39 5 39 13 0 6 15 99 34 205
l33 192 -32 0 c-31 0 -33 -2 -39 -47 -19 -149 -29 -203 -36 -203 -4 0 -15 56
-25 125 -18 124 -18 125 -45 125 -26 0 -27 -2 -39 -97 -16 -127 -22 -153 -31
-153 -7 0 -13 35 -36 208 -6 38 -9 42 -35 42 -16 0 -29 -5 -29 -12z"/>
<path d="M1180 655 l0 -205 95 0 95 0 0 30 c0 28 -1 29 -57 32 l-58 3 -3 58
-3 57 61 0 c60 0 60 0 60 30 0 28 -1 29 -57 32 l-58 3 -3 53 -3 52 60 0 61 0
0 30 0 30 -95 0 -95 0 0 -205z"/>
<path d="M1440 813 c0 -27 -1 -119 -3 -206 l-2 -157 68 0 c41 0 80 6 97 15 54
28 76 108 46 167 -13 24 -12 31 6 67 17 34 18 45 8 75 -6 20 -25 47 -41 61
-27 22 -40 25 -105 25 l-74 0 0 -47z"/>
<path d="M1790 848 c0 -7 14 -100 32 -205 l33 -193 36 0 36 0 13 95 c7 53 16
98 20 100 8 5 30 -123 30 -170 0 -22 4 -25 40 -25 22 0 40 3 40 8 0 9 57 335
66 375 5 25 3 27 -28 27 l-35 0 -12 -97 c-24 -188 -32 -196 -50 -55 -20 155
-20 154 -50 150 -28 -3 -25 8 -55 -200 -4 -27 -11 -48 -15 -48 -4 0 -13 44
-20 98 -20 154 -19 152 -52 152 -17 0 -29 -5 -29 -12z"/>
<path d="M2190 655 l0 -205 95 0 95 0 0 30 c0 29 -1 29 -62 32 l-63 3 0 55 0
55 63 3 c61 3 62 3 62 32 0 29 -1 29 -62 32 l-63 3 0 50 0 50 63 3 c61 3 62 3
62 32 l0 30 -95 0 -95 0 0 -205z"/>
<path d="M2440 656 l0 -206 30 0 30 0 0 100 c0 55 4 100 8 100 4 0 29 -45 54
-100 41 -89 49 -100 72 -100 l26 0 0 205 0 205 -30 0 -30 0 0 -110 c0 -60 -3
-110 -7 -110 -5 0 -28 49 -53 108 -41 96 -49 107 -73 110 l-27 3 0 -205z"/>
<path d="M2762 844 c-42 -29 -52 -65 -52 -189 0 -158 26 -205 115 -205 76 0
115 51 115 150 l0 60 -55 0 c-54 0 -55 0 -55 -30 0 -23 4 -30 20 -30 16 0 20
-7 20 -35 0 -43 -33 -65 -69 -46 -20 11 -21 20 -21 134 0 129 5 147 45 147 27
0 45 -18 45 -47 0 -20 5 -23 36 -23 l37 0 -6 38 c-9 54 -55 92 -110 92 -23 0
-53 -7 -65 -16z"/>
<path d="M3021 844 c-36 -26 -54 -77 -41 -123 11 -42 35 -67 102 -105 54 -31
64 -50 43 -82 -26 -41 -80 -24 -87 26 -2 19 -10 26 -31 28 -34 4 -43 -15 -27
-62 17 -51 53 -76 110 -76 42 0 52 4 79 35 24 27 31 45 31 76 0 47 -25 76
-103 121 -26 16 -50 35 -53 43 -11 29 5 64 33 71 33 9 63 -24 63 -68 0 -26 3
-29 28 -26 25 3 27 6 26 50 0 39 -6 54 -29 78 -24 25 -37 30 -75 30 -26 0 -56
-7 -69 -16z"/>
<path d="M1508 340 c-10 -6 -18 -21 -18 -34 0 -20 4 -22 32 -18 30 5 31 4 25
-25 -25 -124 -17 -177 26 -171 20 3 23 11 29 85 7 92 11 103 37 103 20 0 51
30 51 48 0 8 -19 12 -54 12 -29 0 -66 2 -82 5 -16 3 -37 0 -46 -5z"/>
<path d="M2076 335 c-14 -8 -20 -19 -18 -36 2 -13 -2 -52 -8 -87 -7 -44 -7
-68 0 -82 41 -77 191 -29 221 71 15 49 -1 113 -34 131 -28 15 -133 17 -161 3z"/>
<path d="M1775 296 c-46 -20 -67 -51 -72 -103 -5 -54 16 -87 62 -99 86 -21
177 91 131 161 -9 14 -23 25 -32 25 -8 0 -17 7 -20 15 -7 18 -29 19 -69 1z"/>
<path d="M2373 295 c-39 -17 -63 -52 -70 -103 -4 -31 0 -44 20 -68 21 -24 33
-29 71 -29 60 0 105 41 113 104 6 43 -14 81 -42 81 -7 0 -15 7 -19 15 -7 18
-31 19 -73 0z"/>
</g>
</svg>
